<svg width="282" height="282" viewBox="0 0 282 282" fill="none" xmlns="http://www.w3.org/2000/svg">
<g clip-path="url(#clip0_129_84)">
<path d="M265.098 93.2318C264.998 92.6614 264.786 92.1163 264.475 91.6277C264.164 91.1391 263.76 90.7166 263.286 90.3843C262.812 90.052 262.276 89.8164 261.711 89.6911C261.146 89.5658 260.561 89.5532 259.991 89.654L238.303 93.4742C237.732 93.5742 237.187 93.7858 236.698 94.097C236.209 94.4082 235.786 94.8127 235.454 95.2875C235.121 95.7623 234.886 96.298 234.761 96.8639C234.636 97.4298 234.624 98.0148 234.725 98.5854L235.668 103.921L223.331 106.076L215.906 104.939V39.6562C215.906 34.9818 214.049 30.4988 210.744 27.1935C207.439 23.8882 202.956 22.0312 198.281 22.0312H167.437V13.2188C167.437 9.71292 166.045 6.35068 163.566 3.87168C161.087 1.39269 157.725 0 154.219 0L127.781 0C124.275 0 120.913 1.39269 118.434 3.87168C115.955 6.35068 114.562 9.71292 114.562 13.2188V22.0312H83.7187C79.0443 22.0312 74.5613 23.8882 71.256 27.1935C67.9506 30.4988 66.0937 34.9818 66.0937 39.6562V104.952L58.6383 106.094L46.3361 103.926L47.2746 98.5854C47.376 98.0148 47.3639 97.4298 47.2389 96.8639C47.1139 96.298 46.8784 95.7623 46.5461 95.2875C46.2137 94.8127 45.791 94.4082 45.3021 94.097C44.8131 93.7858 44.2676 93.5742 43.6967 93.4742L22.0312 89.654C21.4606 89.5525 20.8756 89.5647 20.3097 89.6897C19.7438 89.8147 19.2081 90.0501 18.7333 90.3825C18.2585 90.7148 17.8539 91.1376 17.5428 91.6265C17.2316 92.1155 17.02 92.661 16.92 93.2318L0.0660441 188.684C-0.0353791 189.255 -0.0232382 189.84 0.101772 190.406C0.226781 190.972 0.462204 191.508 0.794556 191.982C1.12691 192.457 1.54966 192.862 2.0386 193.173C2.52754 193.484 3.07306 193.696 3.64392 193.796L25.3359 197.616C25.9062 197.717 26.4907 197.704 27.0561 197.579C27.6215 197.453 28.1567 197.218 28.631 196.886C29.1053 196.553 29.5094 196.131 29.8203 195.642C30.1312 195.154 30.3427 194.608 30.4427 194.038L30.8437 191.672L34.4833 192.315C37.8378 199.704 42.7182 206.299 48.8036 211.667C48.5704 215.646 49.703 219.585 52.014 222.832C54.325 226.079 57.6757 228.439 61.5112 229.522C59.4498 232.945 58.6206 236.971 59.161 240.93C59.7014 244.89 61.579 248.546 64.4825 251.292C67.3859 254.038 71.1407 255.709 75.1243 256.028C79.1079 256.347 83.0809 255.295 86.3845 253.047C86.8226 255.972 87.9982 258.739 89.8007 261.085C91.6031 263.431 93.9729 265.279 96.6871 266.457C99.4013 267.634 102.37 268.101 105.315 267.814C108.26 267.527 111.083 266.495 113.518 264.816C113.93 267.514 114.971 270.078 116.555 272.301C118.14 274.524 120.225 276.344 122.641 277.614C125.058 278.884 127.739 279.568 130.469 279.612C133.198 279.656 135.9 279.058 138.356 277.867V277.893L140.119 279.065C142.049 280.343 144.212 281.229 146.484 281.67C148.757 282.112 151.094 282.102 153.362 281.641C155.631 281.179 157.786 280.275 159.705 278.98C161.624 277.686 163.27 276.026 164.547 274.095C166.476 271.158 167.463 267.703 167.376 264.19C168.805 264.579 170.279 264.784 171.76 264.798C174.088 264.805 176.395 264.35 178.546 263.459C180.697 262.568 182.65 261.259 184.292 259.608C185.933 257.956 187.231 255.996 188.109 253.839C188.987 251.683 189.428 249.373 189.407 247.045C190.81 247.414 192.253 247.607 193.703 247.618C196.028 247.618 198.331 247.158 200.478 246.264C202.624 245.371 204.573 244.061 206.211 242.411C207.85 240.761 209.145 238.802 210.023 236.649C210.902 234.496 211.345 232.191 211.328 229.865C214.014 230.565 216.828 230.615 219.538 230.011C222.247 229.407 224.773 228.166 226.908 226.392C229.042 224.617 230.723 222.359 231.811 219.806C232.899 217.252 233.364 214.476 233.165 211.707C239.257 206.33 244.137 199.722 247.486 192.32L251.156 191.694L251.57 194.038C251.67 194.609 251.882 195.154 252.193 195.643C252.504 196.132 252.909 196.555 253.384 196.887C253.859 197.22 254.394 197.455 254.96 197.58C255.526 197.705 256.111 197.717 256.682 197.616L278.369 193.796C278.94 193.696 279.486 193.484 279.975 193.173C280.464 192.862 280.886 192.457 281.219 191.982C281.551 191.508 281.786 190.972 281.911 190.406C282.036 189.84 282.049 189.255 281.947 188.684L265.098 93.2318ZM123.375 13.2188C123.375 12.0501 123.839 10.9294 124.666 10.1031C125.492 9.27673 126.613 8.8125 127.781 8.8125H154.219C155.387 8.8125 156.508 9.27673 157.334 10.1031C158.161 10.9294 158.625 12.0501 158.625 13.2188V22.0312H123.375V13.2188ZM74.9062 39.6562C74.9062 37.319 75.8347 35.0775 77.4873 33.4249C79.14 31.7722 81.3815 30.8438 83.7187 30.8438H198.281C200.618 30.8438 202.86 31.7722 204.513 33.4249C206.165 35.0775 207.094 37.319 207.094 39.6562V52.875C207.094 56.3808 205.701 59.7431 203.222 62.2221C200.743 64.7011 197.381 66.0938 193.875 66.0938V61.6875C193.875 60.5189 193.411 59.3981 192.584 58.5718C191.758 57.7455 190.637 57.2812 189.469 57.2812H171.844C170.675 57.2812 169.554 57.7455 168.728 58.5718C167.902 59.3981 167.437 60.5189 167.437 61.6875V66.0938H114.562V61.6875C114.562 60.5189 114.098 59.3981 113.272 58.5718C112.446 57.7455 111.325 57.2812 110.156 57.2812H92.5312C91.3626 57.2812 90.2418 57.7455 89.4155 58.5718C88.5892 59.3981 88.125 60.5189 88.125 61.6875V66.0938C84.6191 66.0938 81.2569 64.7011 78.7779 62.2221C76.2989 59.7431 74.9062 56.3808 74.9062 52.875V39.6562ZM185.062 66.0938V74.9062H176.25V66.0938H185.062ZM105.75 66.0938V74.9062H96.9375V66.0938H105.75ZM74.9062 70.3854C78.6973 73.3015 83.3421 74.8901 88.125 74.9062V79.3125C88.125 80.4811 88.5892 81.6019 89.4155 82.4282C90.2418 83.2545 91.3626 83.7188 92.5312 83.7188H110.156C111.325 83.7188 112.446 83.2545 113.272 82.4282C114.098 81.6019 114.562 80.4811 114.562 79.3125V74.9062H167.437V79.3125C167.437 80.4811 167.902 81.6019 168.728 82.4282C169.554 83.2545 170.675 83.7188 171.844 83.7188H189.469C190.637 83.7188 191.758 83.2545 192.584 82.4282C193.411 81.6019 193.875 80.4811 193.875 79.3125V74.9062C198.658 74.8901 203.303 73.3015 207.094 70.3854V103.591L173.606 98.4709C166.324 97.374 158.881 98.3182 152.104 101.198L141 105.931L129.927 101.212C123.139 98.3189 115.679 97.3774 108.385 98.4929L74.9062 103.609V70.3854ZM22.5291 188.178L9.51305 185.878L24.8115 99.0745L37.832 101.37L22.5291 188.178ZM59.6165 218.242C58.1148 216.452 57.3854 214.139 57.5887 211.811C57.792 209.483 58.9112 207.332 60.7005 205.829L77.5808 191.672C78.4673 190.928 79.4916 190.366 80.5954 190.017C81.6992 189.669 82.8607 189.542 84.0137 189.642C85.1667 189.743 86.2886 190.07 87.3153 190.604C88.342 191.138 89.2535 191.869 89.9976 192.756C90.7417 193.642 91.304 194.667 91.6522 195.77C92.0005 196.874 92.1279 198.036 92.0273 199.189C91.9266 200.342 91.5998 201.464 91.0656 202.49C90.5314 203.517 89.8001 204.428 88.9137 205.173L72.0333 219.339C71.1461 220.082 70.1211 220.644 69.0168 220.991C67.9126 221.338 66.7507 221.464 65.5976 221.362C64.4446 221.261 63.3229 220.933 62.2966 220.397C61.2703 219.862 60.3596 219.129 59.6165 218.242ZM82.2735 245.247C81.3867 245.992 80.362 246.554 79.258 246.902C78.154 247.25 76.9922 247.377 75.839 247.276C74.6858 247.176 73.5637 246.849 72.5369 246.314C71.5101 245.78 70.5986 245.048 69.8544 244.161C69.1103 243.275 68.5481 242.25 68.2 241.146C67.8519 240.042 67.7246 238.88 67.8254 237.727C67.9263 236.574 68.2533 235.452 68.7878 234.425C69.3223 233.398 70.0538 232.486 70.9406 231.742L91.2093 214.747C93.0092 213.339 95.286 212.684 97.5592 212.922C99.8325 213.161 101.924 214.273 103.393 216.024C104.862 217.775 105.593 220.029 105.432 222.308C105.27 224.588 104.23 226.717 102.529 228.244L82.2735 245.247ZM109.394 257.003C108.507 257.747 107.483 258.309 106.379 258.657C105.275 259.005 104.113 259.132 102.96 259.031C101.807 258.93 100.685 258.603 99.6587 258.068C98.6322 257.533 97.721 256.802 96.9771 255.915C96.2333 255.028 95.6714 254.004 95.3235 252.9C94.9756 251.796 94.8486 250.634 94.9497 249.481C95.0507 248.328 95.3779 247.206 95.9125 246.18C96.4471 245.153 97.1787 244.242 98.0655 243.498L111.571 232.17C113.364 230.697 115.667 229.992 117.977 230.207C120.288 230.421 122.421 231.539 123.913 233.317C125.405 235.094 126.135 237.389 125.945 239.702C125.755 242.015 124.661 244.16 122.899 245.67L109.394 257.003ZM136.51 268.781C134.717 270.262 132.411 270.975 130.094 270.763C127.778 270.55 125.64 269.431 124.145 267.649C122.651 265.867 121.921 263.566 122.116 261.248C122.311 258.93 123.415 256.784 125.186 255.276L138.687 243.948C139.573 243.203 140.597 242.641 141.701 242.293C142.805 241.944 143.967 241.817 145.12 241.918C146.273 242.018 147.395 242.345 148.421 242.879C149.448 243.414 150.359 244.145 151.103 245.032C151.847 245.918 152.41 246.943 152.757 248.047C153.105 249.151 153.232 250.312 153.131 251.465C153.03 252.618 152.703 253.74 152.168 254.767C151.634 255.793 150.902 256.705 150.015 257.448L136.51 268.781ZM157.189 269.248C156.021 271.029 154.242 272.32 152.188 272.88C150.134 273.44 147.946 273.23 146.036 272.289L155.682 264.199C156.594 263.436 157.427 262.583 158.167 261.652C158.584 262.906 158.712 264.238 158.543 265.549C158.374 266.859 157.911 268.115 157.189 269.222V269.248ZM223.014 217.669C222.375 218.634 221.552 219.464 220.593 220.111C219.633 220.759 218.555 221.211 217.421 221.441C216.287 221.672 215.118 221.677 213.982 221.456C212.846 221.235 211.764 220.793 210.799 220.154L174.047 195.845C173.565 195.495 173.018 195.247 172.437 195.116C171.857 194.984 171.256 194.971 170.671 195.078C170.086 195.184 169.528 195.409 169.032 195.737C168.535 196.065 168.11 196.49 167.783 196.987C167.455 197.483 167.232 198.041 167.126 198.627C167.019 199.212 167.033 199.813 167.165 200.393C167.298 200.973 167.546 201.52 167.896 202.002C168.246 202.483 168.689 202.889 169.2 203.194L198.607 222.657C200.555 223.949 201.91 225.961 202.374 228.252C202.838 230.543 202.373 232.925 201.081 234.873C199.79 236.821 197.777 238.176 195.486 238.64C193.195 239.104 190.813 238.639 188.865 237.347L159.462 217.889C158.972 217.561 158.42 217.336 157.841 217.228C156.84 217.04 155.805 217.203 154.912 217.692C154.018 218.18 153.321 218.963 152.94 219.907C152.558 220.851 152.515 221.898 152.818 222.87C153.121 223.842 153.752 224.679 154.602 225.239L176.633 239.837C178.57 241.133 179.913 243.143 180.371 245.428C180.829 247.713 180.363 250.086 179.076 252.028C177.788 253.97 175.784 255.324 173.501 255.792C171.219 256.26 168.844 255.805 166.895 254.527L161.872 251.205C161.994 247.972 161.215 244.769 159.623 241.952C158.031 239.136 155.689 236.817 152.856 235.253C150.024 233.69 146.813 232.944 143.581 233.098C140.35 233.252 137.224 234.301 134.554 236.127C134.212 233.836 133.415 231.636 132.211 229.658C131.006 227.68 129.418 225.962 127.539 224.607C125.66 223.252 123.53 222.287 121.272 221.768C119.015 221.249 116.677 221.187 114.395 221.586C114.472 217.415 113.037 213.358 110.356 210.162C107.674 206.967 103.927 204.851 99.8059 204.203C101.095 200.565 101.151 196.604 99.9647 192.931C98.7782 189.258 96.4153 186.078 93.2411 183.882C90.0668 181.686 86.2578 180.596 82.4024 180.781C78.547 180.965 74.8597 182.414 71.91 184.904L55.0296 199.07C53.8495 200.086 52.812 201.257 51.9452 202.551C47.5354 198.005 44.0595 192.638 41.7139 186.755C41.4361 186.055 40.9837 185.438 40.3998 184.963C39.8158 184.488 39.1199 184.17 38.3784 184.04L32.3815 182.983L44.7939 112.593L57.81 114.889C58.2838 114.97 58.7681 114.97 59.242 114.889L109.716 107.204C115.385 106.334 121.184 107.067 126.459 109.319L129.738 110.716L112.143 118.206C108.19 119.897 104.82 122.71 102.45 126.296L85.869 151.293C83.9507 154.229 83.2698 157.804 83.9745 161.239C84.6793 164.675 86.7126 167.693 89.6319 169.636C94.5071 172.848 100.457 173.997 106.177 172.83C111.898 171.663 116.922 168.275 120.15 163.41L127.715 152.016L143.802 148.724C145.536 154.07 148.482 158.943 152.409 162.963C156.335 166.983 161.138 170.042 166.442 171.901C168.321 172.571 170.25 173.097 172.209 173.474L220.524 205.463C222.472 206.753 223.828 208.762 224.295 211.051C224.762 213.339 224.301 215.72 223.014 217.669ZM243.613 184.049C242.868 184.179 242.169 184.498 241.584 184.975C240.998 185.453 240.545 186.073 240.268 186.777C237.922 192.687 234.433 198.077 230.002 202.639C228.761 200.854 227.196 199.317 225.388 198.109L187.935 173.333C192.802 172.36 197.438 170.467 201.595 167.755L208.517 163.216C209.494 162.574 210.176 161.569 210.412 160.424C210.648 159.278 210.42 158.086 209.777 157.109C209.134 156.132 208.13 155.451 206.985 155.214C205.839 154.978 204.647 155.206 203.67 155.849L196.77 160.388C192.779 163.009 188.233 164.664 183.491 165.223C178.749 165.783 173.942 165.23 169.451 163.608C165.318 162.169 161.584 159.772 158.554 156.614C155.524 153.456 153.284 149.626 152.016 145.437C151.741 144.532 151.508 143.614 151.319 142.688C151.081 141.547 150.4 140.548 149.427 139.908C148.453 139.268 147.266 139.04 146.124 139.273L124.177 143.767C123.035 144.001 122.032 144.677 121.388 145.649L112.844 158.555C110.907 161.472 107.893 163.503 104.462 164.204C101.031 164.905 97.4624 164.219 94.536 162.295C93.5596 161.645 92.8788 160.636 92.6413 159.487C92.4037 158.338 92.6286 157.142 93.2671 156.158L109.839 131.165C111.26 129.019 113.277 127.335 115.642 126.318L155.567 109.31C160.845 107.07 166.641 106.336 172.311 107.191L222.762 114.902C223.234 114.974 223.714 114.974 224.186 114.902L237.228 112.619L249.614 183.009L243.613 184.049ZM259.475 188.169L244.172 101.366L257.193 99.0701L272.491 185.873L259.475 188.169Z" fill="black"/>
</g>
<defs>
<clipPath id="clip0_129_84">
<rect width="282" height="282" fill="white"/>
</clipPath>
</defs>
</svg>
