<svg width="390" height="151" viewBox="0 0 390 151" fill="none" xmlns="http://www.w3.org/2000/svg">
<circle cx="62.5" cy="75.5" r="62" fill="#0000FF"/>
<path fill-rule="evenodd" clip-rule="evenodd" d="M55.8785 111.23C55.5921 112.067 55.3058 112.903 55.0194 113.74C55.7476 114.006 56.4759 114.271 57.4905 114.589C58.505 114.907 59.806 115.277 61.0129 115.55C62.2198 115.824 63.3325 116.001 64.3348 116.11C65.3371 116.218 66.229 116.259 67.1045 116.238C67.98 116.218 68.8391 116.138 69.7023 116.025C70.5656 115.913 71.4328 115.768 72.3737 115.546C73.3147 115.325 74.3293 115.027 75.2252 114.722C76.1212 114.416 76.8985 114.102 77.7085 113.732C78.5186 113.362 79.3613 112.936 80.11 112.501C80.8587 112.067 81.5132 111.624 82.1964 111.121C82.8797 110.618 83.5915 110.055 84.2952 109.415C84.9989 108.776 85.6943 108.06 86.3939 107.283C87.0935 106.507 87.7971 105.67 88.6317 104.572C89.4663 103.474 90.4318 102.114 91.074 101.197C91.7164 100.279 92.0355 99.8047 92.3546 99.33C91.5772 98.8553 90.8 98.3806 90.0226 97.9059C88.7463 99.7 87.4698 101.494 86.5002 102.794C85.5306 104.093 84.8679 104.898 84.1888 105.638C83.5097 106.378 82.8142 107.054 82.1023 107.674C81.3905 108.293 80.6623 108.856 80.0773 109.271C79.4922 109.685 79.0504 109.951 78.5186 110.248C77.9867 110.546 77.3649 110.876 76.7226 111.181C76.0803 111.487 75.4175 111.769 74.587 112.059C73.7565 112.348 72.7584 112.646 71.7805 112.879C70.8028 113.113 69.8455 113.282 68.7532 113.378C67.6608 113.475 66.4335 113.499 65.2757 113.43C64.118 113.362 63.0298 113.201 61.966 112.984C60.9024 112.767 59.8633 112.493 58.8527 112.191C57.8423 111.89 56.8604 111.56 55.8785 111.23ZM51.9825 65.1312C50.2537 72.1164 43.8496 77.3021 36.214 77.3021C27.2515 77.3021 19.9858 70.1574 19.9858 61.3441C19.9858 52.5309 27.2515 45.3862 36.214 45.3862C45.1766 45.3862 52.4422 52.5309 52.4422 61.3441C52.4422 61.6674 52.4324 61.9884 52.4132 62.3069H24.1515C24.6499 68.4287 29.8602 73.2441 36.214 73.2441C41.5511 73.2441 46.0812 69.8465 47.6898 65.1312H51.9825ZM47.7025 58.7159C46.7938 53.0281 42.2535 49.4441 36.214 49.4441C30.1746 49.4441 25.0585 53.0515 24.1498 58.7393L47.7025 58.7159ZM101.012 65.1312C99.283 72.1164 92.879 77.3021 85.2434 77.3021C76.2808 77.3021 69.0152 70.1574 69.0152 61.3441C69.0152 52.5309 76.2808 45.3862 85.2434 45.3862C94.2059 45.3862 101.472 52.5309 101.472 61.3441C101.472 61.6674 101.462 61.9884 101.443 62.3069H73.1809C73.6792 68.4287 78.8895 73.2441 85.2434 73.2441C90.5804 73.2441 95.1105 69.8465 96.7191 65.1312H101.012ZM96.7318 58.7159C95.8231 53.0281 91.2828 49.4441 85.2434 49.4441C79.2039 49.4441 74.0878 53.0515 73.1791 58.7393L96.7318 58.7159ZM58.4139 48.0473H62.5376V87.7835H82.5189V92.0754H58.4139V48.0473Z" fill="white"/>
<path d="M290.03 125V26H353.5V39.5438H304.449V67.3187H345.221V80.8625H304.449V111.456H353.5V125H290.03Z" fill="#0000FF"/>
<path d="M218.918 125V26H233.336V111.456H278.317V125H218.918Z" fill="#0000FF"/>
<path d="M137.5 125V26H200.97V39.5438H151.919V67.3187H192.691V80.8625H151.919V111.456H200.97V125H137.5Z" fill="#0000FF"/>
</svg>
