<svg width="63" height="70" viewBox="0 0 63 70" fill="none" xmlns="http://www.w3.org/2000/svg">
<path fill-rule="evenodd" clip-rule="evenodd" d="M1.24281 1.55779C0.453609 2.39143 0 3.67451 0 5.34179V64.6463C0 66.3135 0.453609 67.5966 1.27232 68.4013L1.48621 68.5789L35.2967 35.3492V34.6026L1.45671 1.38019L1.24281 1.55779Z" fill="black"/>
<path fill-rule="evenodd" clip-rule="evenodd" d="M46.5446 46.4696L35.2671 35.3821V34.6065L46.5483 23.5191L46.7917 23.6677L60.1344 31.1197C63.9551 33.2364 63.9551 36.7232 60.1344 38.8689L46.7917 46.321C46.788 46.321 46.5446 46.4696 46.5446 46.4696Z" fill="black"/>
<path fill-rule="evenodd" clip-rule="evenodd" d="M46.7884 46.3209L35.2675 34.9943L1.24316 68.4341C2.48598 69.7462 4.577 69.8948 6.91512 68.6117L46.7884 46.3209Z" fill="black"/>
<path fill-rule="evenodd" clip-rule="evenodd" d="M46.7875 23.6715L6.91414 1.4097C4.57972 0.097622 2.485 0.275224 1.24219 1.5873L35.2629 34.9946L46.7875 23.6715Z" fill="black"/>
<path opacity="0.2" fill-rule="evenodd" clip-rule="evenodd" d="M46.6353 46.1612C46.5809 46.1135 46.5024 46.1052 46.4393 46.1405L6.94417 68.1949C4.7911 69.4117 2.86499 69.3621 1.59053 68.3134C1.53082 68.2642 1.44324 68.2661 1.38809 68.3203C1.32608 68.3812 1.33032 68.4824 1.39721 68.5379L1.48611 68.6117C2.75843 69.7426 4.73145 69.8332 6.94417 68.5828L46.606 46.439C46.7091 46.3814 46.7241 46.2391 46.6353 46.1612Z" fill="#0000FF"/>
<path opacity="0.12" fill-rule="evenodd" clip-rule="evenodd" d="M60.131 38.4811L46.7062 45.9751C46.6109 46.0284 46.5934 46.1583 46.6713 46.2349C46.7231 46.2859 46.8024 46.2965 46.8659 46.2611L60.1015 38.8689C62.0118 37.796 62.9522 36.397 62.9522 34.9943C62.8305 36.2773 61.8606 37.4988 60.131 38.4811Z" fill="white"/>
<path opacity="0.25" fill-rule="evenodd" clip-rule="evenodd" d="M6.91477 1.79728L60.1308 31.5111C61.8605 32.4644 62.8304 33.7149 62.9816 34.9979C62.9816 33.5989 62.0412 32.1962 60.1308 31.1233L6.91477 1.40946C3.09413 -0.736264 0 1.05063 0 5.34207V5.72989C0 1.43845 3.09413 -0.319443 6.91477 1.79728Z" fill="white"/>
<path d="M1.1377 1.61835L35.1319 35.0285M35.1319 35.0285L46.6525 46.3512M35.1319 35.0285L46.6525 23.6653M35.1319 35.0285L1.30025 68.3982" stroke="white" stroke-width="2" stroke-linecap="round"/>
</svg>
