<svg width="194" height="39" viewBox="0 0 194 39" fill="none" xmlns="http://www.w3.org/2000/svg">
<path fill-rule="evenodd" clip-rule="evenodd" d="M0.00638254 15.3151C0.00638254 7.19194 7.03847 0.578125 15.4048 0.578125C20.0301 0.578125 23.3211 2.3416 25.8045 4.63815L22.8806 7.47707C21.1058 5.85926 18.699 4.60406 15.4016 4.60406C9.29206 4.60406 4.51675 9.38002 4.51675 15.312C4.51675 21.244 9.29206 26.0261 15.3984 26.0261C19.3598 26.0261 21.6134 24.4827 23.0594 23.0756C24.2436 21.9258 25.0193 20.2739 25.3193 18.0084H15.4048V13.9917H29.3605C29.5073 14.7107 29.5839 15.5723 29.5839 16.5052C29.5839 19.5208 28.7316 23.2616 25.9897 25.9239C23.3211 28.6202 19.9184 30.0583 15.4016 30.0583C7.03209 30.0583 0 23.4506 0 15.3213L0.00638254 15.3151ZM40.8646 11.0753C35.4605 11.0753 31.0491 15.0672 31.0491 20.5621C31.0491 26.0292 35.4573 30.049 40.8646 30.049C46.272 30.049 50.6738 26.023 50.6738 20.559C50.6738 15.0641 46.2688 11.0722 40.8646 11.0753ZM40.8646 26.3175C37.9056 26.3175 35.3488 23.9465 35.3488 20.5652C35.3488 17.1499 37.9024 14.813 40.8646 14.813C43.8237 14.813 46.3773 17.1468 46.3773 20.5652C46.3773 23.9434 43.8269 26.3175 40.8646 26.3175ZM62.2673 11.0753C56.8632 11.0753 52.4582 15.0672 52.4582 20.5621C52.4582 26.0292 56.8632 30.049 62.2673 30.049C67.6715 30.049 72.0765 26.023 72.0765 20.559C72.0765 15.0641 67.6747 11.0722 62.2673 11.0753ZM62.2673 26.3175C59.3083 26.3175 56.7515 23.9465 56.7515 20.5652C56.7515 17.1499 59.3051 14.813 62.2673 14.813C65.2264 14.813 67.7832 17.1468 67.7832 20.5652C67.7832 23.9434 65.2264 26.3175 62.2673 26.3175ZM88.5347 11.6518V13.1952H88.3879C87.4271 12.0764 85.5757 11.0722 83.2455 11.0722C78.3585 11.0722 73.8736 15.2438 73.8736 20.6024C73.8736 25.9177 78.3553 30.0552 83.2455 30.0552C85.5757 30.0552 87.4271 29.051 88.3879 27.9012H88.5347V29.2649C88.5347 32.8941 86.5365 34.8373 83.3157 34.8373C80.6855 34.8373 79.0575 33.0026 78.3904 31.4622L74.6493 32.9716C75.7218 35.4851 78.5755 38.5781 83.3125 38.5781C88.3432 38.5781 92.6014 35.6989 92.6014 28.6915V11.6487L88.5347 11.6518ZM83.6126 26.3175C80.6535 26.3175 78.1669 23.9062 78.1669 20.6024C78.1669 17.2614 80.6504 14.8161 83.6126 14.8161C86.5365 14.8161 88.8316 17.2583 88.8316 20.6024C88.8348 23.9062 86.5397 26.3175 83.6126 26.3175ZM95.5668 1.58538H99.8633V29.4787H95.5668V1.58538ZM111.639 26.3175C109.455 26.3175 107.898 25.3443 106.905 23.4444L119.973 18.1912L119.523 17.1127C118.712 14.9959 116.229 11.0753 111.157 11.0753C106.123 11.0753 101.938 14.9215 101.938 20.5652C101.938 25.8805 106.085 30.0521 111.639 30.0521C116.12 30.0521 118.712 27.396 119.785 25.8464L116.452 23.6924C115.338 25.2761 113.819 26.3206 111.639 26.3175ZM111.304 14.7417C113.005 14.7417 114.448 15.5692 114.93 16.7532L106.19 20.277C106.081 16.6106 109.117 14.7417 111.304 14.7417Z" fill="black"/>
<path fill-rule="evenodd" clip-rule="evenodd" d="M138.825 1.58539H128.553V29.4787H132.84V18.9133H138.829C143.582 18.9133 148.255 15.5723 148.255 10.2478C148.255 4.93259 143.585 1.58849 138.835 1.58849L138.825 1.58539ZM138.937 15.03H132.84V5.46566H138.937C142.142 5.46566 143.968 8.04734 143.968 10.2478C143.968 12.4111 142.142 15.03 138.937 15.03ZM154.904 29.4787V1.58539H150.617V29.4787H154.904ZM174.161 29.4291V18.7367C174.161 13.7841 170.35 11.0226 165.431 11.0226C162.332 11.0226 159.117 12.3522 157.786 15.2934L161.591 16.8337C162.405 15.2934 163.918 14.7882 165.511 14.7882C167.726 14.7882 169.98 16.0806 170.015 18.3803V18.6685C169.239 18.2377 167.579 17.59 165.543 17.59C161.441 17.59 157.266 19.778 157.266 23.8691C157.266 27.6037 160.63 30.0056 164.4 30.0056C167.286 30.0056 168.872 28.7504 169.868 27.2813H170.015V29.4353H174.158L174.161 29.4291ZM164.92 26.3113C163.516 26.3113 161.556 25.6294 161.556 23.9465C161.556 21.7926 163.998 20.9619 166.105 20.9619C167.991 20.9619 168.875 21.3556 170.025 21.8948C169.696 24.399 167.516 26.2803 164.92 26.3113ZM189.238 11.6332L184.322 23.7234H184.175L179.074 11.6332H174.455L182.103 28.5365L177.74 37.9366H182.212L194 11.6332H189.238Z" fill="black"/>
</svg>
