<svg width="84" height="84" viewBox="0 0 84 84" fill="none" xmlns="http://www.w3.org/2000/svg">
<circle cx="42" cy="42" r="42" fill="#0000FF"/>
<path fill-rule="evenodd" clip-rule="evenodd" d="M37.5144 66.2037C37.3203 66.7706 37.1264 67.3375 36.9324 67.9043C37.4257 68.0841 37.919 68.264 38.6063 68.4793C39.2936 68.6946 40.1749 68.9453 40.9925 69.1306C41.81 69.3159 42.5638 69.4359 43.2428 69.5094C43.9218 69.583 44.5259 69.6103 45.119 69.5966C45.7121 69.583 46.2941 69.5285 46.8789 69.4522C47.4636 69.3759 48.0511 69.2778 48.6885 69.1279C49.326 68.978 50.0133 68.7763 50.6202 68.5692C51.2271 68.3621 51.7537 68.1496 52.3024 67.8988C52.8512 67.6481 53.4221 67.3592 53.9292 67.0649C54.4364 66.7706 54.8798 66.4708 55.3426 66.1301C55.8054 65.7895 56.2877 65.408 56.7644 64.9747C57.241 64.5414 57.7121 64.0563 58.1861 63.5303C58.66 63.0044 59.1366 62.4375 59.702 61.6935C60.2673 60.9495 60.9214 60.0284 61.3565 59.4071C61.7916 58.7857 62.0078 58.4641 62.2239 58.1426C61.6974 57.821 61.1708 57.4994 60.6442 57.1778C59.7796 58.3932 58.9149 59.6087 58.2581 60.4889C57.6013 61.3692 57.1523 61.9142 56.6923 62.4157C56.2322 62.9171 55.7611 63.375 55.2789 63.7947C54.7967 64.2143 54.3034 64.5958 53.907 64.8765C53.5107 65.1572 53.2115 65.3371 52.8512 65.5388C52.4909 65.7404 52.0697 65.9639 51.6345 66.171C51.1994 66.3781 50.7505 66.5689 50.1878 66.7651C49.6252 66.9613 48.9491 67.163 48.2867 67.321C47.6243 67.4791 46.9758 67.5936 46.2359 67.659C45.4959 67.7244 44.6645 67.7408 43.8802 67.6944C43.0959 67.6481 42.3587 67.5391 41.6382 67.3919C40.9176 67.2448 40.2137 67.0595 39.5292 66.8551C38.8446 66.6507 38.1795 66.4272 37.5144 66.2037ZM34.8751 34.9756C33.704 39.7076 29.3658 43.2204 24.1932 43.2204C18.1218 43.2204 13.2 38.3805 13.2 32.4102C13.2 26.4399 18.1218 21.6 24.1932 21.6C30.2647 21.6 35.1865 26.4399 35.1865 32.4102C35.1865 32.6292 35.1799 32.8466 35.1669 33.0624H16.0219C16.3595 37.2094 19.889 40.4715 24.1932 40.4715C27.8087 40.4715 30.8775 38.1699 31.9672 34.9756H34.8751ZM31.9758 30.6298C31.3602 26.7768 28.2845 24.3489 24.1932 24.3489C20.102 24.3489 16.6363 26.7926 16.0207 30.6456L31.9758 30.6298ZM68.0885 34.9756C66.9174 39.7076 62.5792 43.2204 57.4067 43.2204C51.3352 43.2204 46.4134 38.3805 46.4134 32.4102C46.4134 26.4399 51.3352 21.6 57.4067 21.6C63.4781 21.6 68.4 26.4399 68.4 32.4102C68.4 32.6292 68.3933 32.8466 68.3803 33.0624H49.2353C49.5729 37.2094 53.1024 40.4715 57.4067 40.4715C61.0221 40.4715 64.0909 38.1699 65.1806 34.9756H68.0885ZM65.1892 30.6298C64.5736 26.7768 61.4979 24.3489 57.4067 24.3489C53.3154 24.3489 49.8497 26.7926 49.2341 30.6456L65.1892 30.6298ZM39.2318 23.4027H42.0254V50.3207H55.5611V53.2281H39.2318V23.4027Z" fill="white"/>
</svg>
