<svg width="41" height="40" viewBox="0 0 41 40" fill="none" xmlns="http://www.w3.org/2000/svg">
<g clip-path="url(#clip0_116_135)">
<path fill-rule="evenodd" clip-rule="evenodd" d="M14.844 22.668L20.504 26.538L25.96 22.774L38.19 34.84C37.868 34.944 37.524 35 37.166 35H3.834C3.394 35 2.974 34.914 2.588 34.76L14.844 22.668ZM40.5 12.752V31.666C40.5 32.16 40.392 32.628 40.2 33.05L28.212 21.222L40.5 12.752ZM0.500002 12.858L12.584 21.122L0.712002 32.838C0.571393 32.4633 0.499576 32.0662 0.500002 31.666V12.858ZM37.166 5C39.006 5 40.5 6.492 40.5 8.334V9.506L20.496 23.296L0.500002 9.62V8.334C0.500002 6.494 1.992 5 3.834 5H37.166Z" fill="#0000FF"/>
</g>
<defs>
<clipPath id="clip0_116_135">
<rect width="40" height="40" fill="white" transform="translate(0.5)"/>
</clipPath>
</defs>
</svg>
