<svg width="186" height="292" viewBox="0 0 186 292" fill="none" xmlns="http://www.w3.org/2000/svg">
<path d="M168.156 199.427L150.757 190.617C157.485 179.857 161.019 167.546 161.019 154.701V68.0133C161.019 30.5104 130.503 0 92.9923 0C78.6454 0 64.9247 4.41338 53.3141 12.7618C52.4073 13.4273 51.8001 14.4235 51.6245 15.5339C51.4489 16.6442 51.7191 17.779 52.3764 18.6914C53.0336 19.6038 54.0248 20.22 55.1344 20.4062C56.2439 20.5924 57.3822 20.3334 58.3017 19.6856C68.4511 12.3882 80.4465 8.53103 92.9929 8.53103C125.795 8.53103 152.481 35.2149 152.481 68.0133V154.701C152.481 166.238 149.214 177.276 143.019 186.861C143.019 186.861 124.019 177.486 121.909 176.339C116.615 173.462 116.615 171.184 116.615 170.435V140.471C131.502 132.185 141.6 116.299 141.6 98.0926V79.5109C141.6 78.5286 141.261 77.5765 140.64 76.8152C140.018 76.0539 139.153 75.5301 138.19 75.3324C114.705 70.5084 104.366 55.4653 99.8271 43.6959C97.4779 37.6048 88.554 37.7816 86.4445 43.9604C82.601 55.2196 72.6082 74.1079 48.8661 74.1079C47.7354 74.1079 46.6507 74.5561 45.8504 75.3542C45.05 76.1523 44.5992 77.2351 44.5969 78.3649L44.5588 98.0926C44.5588 116.293 54.6507 132.175 69.544 140.463V170.435C69.544 171.227 69.544 173.638 64.3435 176.287C61.0283 177.976 42.9997 186.902 42.9997 186.902C36.7894 177.304 33.5043 166.201 33.5043 154.701V68.0133C33.5043 56.0921 37.017 44.5922 43.6622 34.7577C44.9817 32.8052 44.4671 30.1538 42.513 28.836C40.5588 27.5182 37.9051 28.0324 36.5856 29.9849C28.9841 41.2344 24.9659 54.3842 24.9659 68.0133V154.701C24.9659 167.494 28.515 179.866 35.2496 190.64L17.8437 199.428C6.83759 205.177 0 216.454 0 228.859V286.805C0 292.32 8.53846 292.32 8.53846 286.805V228.858C8.53846 219.641 13.62 211.261 21.7998 206.987L44.0442 195.871V252.037C38.279 253.854 34.0867 259.246 34.0867 265.599C34.0867 273.439 40.4706 279.818 48.3174 279.818C56.1643 279.818 62.5482 273.439 62.5482 265.599C62.5482 259.243 58.3518 253.849 52.5827 252.034V191.754L55.7857 190.209L88.9593 288.017C90.2384 291.778 95.7736 291.763 97.0447 288.017L106.535 260.083C108.309 254.86 100.224 252.118 98.4495 257.34L93.0054 273.365L77.9293 228.916H108.106L105.683 236.048C103.909 241.27 111.995 244.012 113.769 238.789L130.388 190.243C131.522 190.81 132.557 191.325 133.413 191.75V225.21C125.543 227.131 119.683 234.232 119.683 242.679V281.845C119.683 287.248 124.083 291.643 129.491 291.643H129.614C131.972 291.643 133.884 289.734 133.884 287.378C133.884 285.022 131.972 283.112 129.614 283.112H129.491C128.791 283.112 128.221 282.544 128.221 281.845V252.234H147.144V282.215C147.143 282.536 147.021 282.845 146.801 283.079C146.582 283.314 146.282 283.457 145.962 283.48C144.836 283.563 143.788 284.088 143.048 284.94C142.308 285.793 141.936 286.904 142.015 288.029C142.093 289.155 142.614 290.204 143.465 290.947C144.315 291.689 145.425 292.065 146.552 291.991C151.672 291.636 155.682 287.342 155.682 282.215V242.679C155.682 234.232 149.822 227.131 141.952 225.21V195.984C142.497 196.355 164.2 206.987 164.2 206.987C172.38 211.26 177.462 219.641 177.462 228.858V286.804C177.462 292.319 186 292.319 186 286.804V228.858C186.001 216.454 179.163 205.177 168.156 199.427ZM53.0972 98.1006L53.1274 82.4689C72.2057 80.9225 86.404 67.3018 93.2684 50.1118C98.2702 61.0714 109.39 76.8532 133.061 82.9039V98.092C133.061 120.119 115.135 138.038 93.0566 138.038C71.0229 138.038 53.0972 120.119 53.0972 98.1006ZM48.318 271.287C45.1792 271.287 42.6257 268.735 42.6257 265.599C42.6257 262.463 45.1792 259.912 48.318 259.912C51.4567 259.912 54.0103 262.463 54.0103 265.599C54.0103 268.735 51.4567 271.287 48.318 271.287ZM111.088 220.385H75.0359L63.4703 186.286C65.4114 185.31 67.1248 184.446 68.2217 183.887C72.7197 181.596 78.0819 177.402 78.0819 170.435V144.186C82.9315 145.766 88.0006 146.57 93.1016 146.569C98.1871 146.57 103.241 145.769 108.076 144.194V170.435C108.076 175.809 111.357 180.317 117.829 183.833C118.985 184.461 120.733 185.367 122.69 186.365L111.088 220.385ZM147.144 242.679V243.703H128.221C127.952 238.198 131.916 233.226 137.683 233.226C142.9 233.226 147.144 237.466 147.144 242.679Z" fill="black"/>
</svg>
